<svg xmlns="http://www.w3.org/2000/svg" viewBox="0 0 680 220" role="img" aria-labelledby="title desc">
<title id="title">2 Out Storm 10U</title><desc id="desc">Purple and orange storm tornado softball logo</desc>
<defs>
 <linearGradient id="p" x1="0" y1="0" x2="1" y2="1"><stop stop-color="#b96cff"/><stop offset="1" stop-color="#58219b"/></linearGradient>
 <linearGradient id="o" x1="0" y1="0" x2="1" y2="1"><stop stop-color="#ffb339"/><stop offset="1" stop-color="#ff5a1f"/></linearGradient>
 <filter id="g"><feGaussianBlur stdDeviation="3" result="b"/><feMerge><feMergeNode in="b"/><feMergeNode in="SourceGraphic"/></feMerge></filter>
</defs>
<g transform="translate(8 7)">
 <path d="M76 18C23 31 7 86 48 112c-30 10-39 45-11 66 29 22 91 12 120-6-48 7-83-4-82-29 2-21 39-21 64-18-17-10-39-22-42-41-5-28 29-48 71-44C142 17 105 11 76 18Z" fill="url(#p)" stroke="#fff" stroke-width="5"/>
 <path d="M56 100c31-21 81-24 124-10-25 1-48 7-63 19-17 13-18 32-8 46-32-8-59-23-68-41-4-7 3-11 15-14Z" fill="#090711" opacity=".92"/>
 <circle cx="95" cy="81" r="30" fill="#d8ff38" stroke="#ff6b25" stroke-width="5"/>
 <path d="M78 62c9 8 14 17 14 37M110 61c-10 9-15 19-15 38" fill="none" stroke="#d94b4b" stroke-width="3" stroke-dasharray="5 4"/>
 <text x="135" y="122" font-family="Arial Black,Impact,sans-serif" font-size="128" font-style="italic" fill="url(#p)" stroke="#fff" stroke-width="5" paint-order="stroke">2</text>
 <text x="235" y="102" font-family="Arial Black,Impact,sans-serif" font-size="74" font-style="italic" fill="#fff">OUT</text>
 <text x="230" y="174" font-family="Arial Black,Impact,sans-serif" font-size="78" font-style="italic" fill="url(#o)" filter="url(#g)">STORM</text>
 <text x="523" y="66" font-family="Arial Black,Impact,sans-serif" font-size="36" fill="#fff">10U</text>
 <path d="M218 185h407" stroke="#8f48d5" stroke-width="8"/><path d="M355 198h270" stroke="#ff6b25" stroke-width="5"/>
</g></svg>
